<svg width="30" height="30" viewBox="0 0 30 30" fill="none" xmlns="http://www.w3.org/2000/svg">
<path d="M1 14.9188C1 9.3801 1.93627 6.00551 3.97089 3.97089C6.00551 1.93627 9.38009 1 14.9188 1C20.4574 1 23.832 1.93627 25.8666 3.97089C27.9013 6.00551 28.8375 9.3801 28.8375 14.9188C28.8375 20.4574 27.9013 23.832 25.8666 25.8666C23.832 27.9013 20.4574 28.8375 14.9188 28.8375C9.38009 28.8375 6.00551 27.9013 3.97089 25.8666C1.93627 23.832 1 20.4574 1 14.9188Z" stroke="#131330" stroke-width="2" stroke-linecap="round" stroke-linejoin="round"/>
<path d="M21.4465 13.9579C21.4465 11.9167 19.8371 10.2534 17.8526 10.2534C16.6634 10.2534 15.6034 10.8507 14.9493 11.773C14.9496 11.7748 14.9496 11.7766 14.9493 11.7783L14.9223 11.8161C14.9223 11.8086 14.9144 11.8033 14.9096 11.7972C14.254 10.8636 13.1884 10.255 11.9865 10.255C10.0044 10.255 8.39181 11.9129 8.39181 13.9595C8.39212 14.5697 8.54141 15.1715 8.82786 15.7172C8.89129 15.9024 9.56995 17.7055 13.902 20.8052L14.5473 21.3011C14.6623 21.3893 14.8046 21.4388 14.9521 21.442C15.0997 21.4451 15.2441 21.4017 15.3631 21.3185L15.9974 20.8748C20.3302 17.7751 21.0097 15.9032 21.0715 15.7187C21.0736 15.7133 21.0751 15.7077 21.0763 15.7021C21.3355 15.1895 21.4465 14.5801 21.4465 13.9595V13.9579Z" fill="#FA3B45"/>
</svg>
